<mxfile host="app.diagrams.net" modified="2023-03-13T19:05:21.771Z" agent="5.0 (Windows NT 10.0; Win64; x64) AppleWebKit/537.36 (KHTML, like Gecko) Chrome/110.0.0.0 Safari/537.36 Edg/110.0.1587.69" etag="MLCM8FXgROgUs1DvCYUu" version="21.0.6" type="github">
  <diagram name="PÃ¡gina-1" id="P0UlOccIJLHmrBsextbk">
    <mxGraphModel dx="880" dy="484" grid="1" gridSize="10" guides="1" tooltips="1" connect="1" arrows="1" fold="1" page="1" pageScale="1" pageWidth="827" pageHeight="1169" math="0" shadow="0">
      <root>
        <mxCell id="0" />
        <mxCell id="1" parent="0" />
        <mxCell id="L1cSf8SQO5dx5zM3y5Yd-1" value="Sistemas" style="shape=umlActor;verticalLabelPosition=bottom;verticalAlign=top;html=1;" vertex="1" parent="1">
          <mxGeometry x="130" y="80" width="30" height="60" as="geometry" />
        </mxCell>
        <mxCell id="L1cSf8SQO5dx5zM3y5Yd-2" value="UsuarioFinal" style="shape=umlActor;verticalLabelPosition=bottom;verticalAlign=top;html=1;" vertex="1" parent="1">
          <mxGeometry x="670" y="300" width="30" height="60" as="geometry" />
        </mxCell>
        <mxCell id="L1cSf8SQO5dx5zM3y5Yd-3" style="edgeStyle=orthogonalEdgeStyle;rounded=0;orthogonalLoop=1;jettySize=auto;html=1;exitX=0.5;exitY=0.5;exitDx=0;exitDy=0;exitPerimeter=0;entryX=0.433;entryY=0.667;entryDx=0;entryDy=0;entryPerimeter=0;" edge="1" parent="1" source="L1cSf8SQO5dx5zM3y5Yd-2" target="L1cSf8SQO5dx5zM3y5Yd-2">
          <mxGeometry relative="1" as="geometry" />
        </mxCell>
        <mxCell id="L1cSf8SQO5dx5zM3y5Yd-4" value="Login" style="ellipse;whiteSpace=wrap;html=1;" vertex="1" parent="1">
          <mxGeometry x="290" y="100" width="110" height="40" as="geometry" />
        </mxCell>
        <mxCell id="L1cSf8SQO5dx5zM3y5Yd-5" value="Use" style="endArrow=open;endSize=12;dashed=1;html=1;rounded=0;exitX=0.5;exitY=0;exitDx=0;exitDy=0;" edge="1" parent="1" source="L1cSf8SQO5dx5zM3y5Yd-4" target="L1cSf8SQO5dx5zM3y5Yd-6">
          <mxGeometry width="160" relative="1" as="geometry">
            <mxPoint x="360" y="70" as="sourcePoint" />
            <mxPoint x="450" y="80" as="targetPoint" />
          </mxGeometry>
        </mxCell>
        <mxCell id="L1cSf8SQO5dx5zM3y5Yd-6" value="Tusuario" style="ellipse;whiteSpace=wrap;html=1;" vertex="1" parent="1">
          <mxGeometry x="460" y="50" width="100" height="40" as="geometry" />
        </mxCell>
        <mxCell id="L1cSf8SQO5dx5zM3y5Yd-7" value="RegistrarLugares" style="ellipse;whiteSpace=wrap;html=1;" vertex="1" parent="1">
          <mxGeometry x="300" y="150" width="110" height="40" as="geometry" />
        </mxCell>
      </root>
    </mxGraphModel>
  </diagram>
</mxfile>
